{"accessors" : [{"bufferView" : 0, "byteOffset" : 0, "componentType" : 5123, "count" : 36, "type" : "SCALAR", "max" : [35], "min" : [0]}, {"bufferView" : 1, "byteOffset" : 0, "componentType" : 5126, "count" : 36, "type" : "VEC3", "max" : [4500, 3000, 100], "min" : [-4500, -3000, 0], "name" : "POSITION"}, {"bufferView" : 1, "byteOffset" : 12, "componentType" : 5126, "count" : 36, "type" : "VEC3", "max" : [1.0000044107437134, 1.0000044107437134, 1.0000044107437134], "min" : [-1.0000044107437134, -1.0000044107437134, -1.0000044107437134], "name" : "NORMAL"}, {"bufferView" : 1, "byteOffset" : 24, "componentType" : 5126, "count" : 36, "type" : "VEC2", "max" : [1, 5.960464477539063E-08], "min" : [-5.960464477539063E-08, -1], "name" : "TEXCOORD_0"}, {"bufferView" : 0, "byteOffset" : 72, "componentType" : 5123, "count" : 33792, "type" : "SCALAR", "max" : [33791], "min" : [0]}, {"bufferView" : 2, "byteOffset" : 0, "componentType" : 5126, "count" : 33792, "type" : "VEC3", "max" : [4703.98046875, 3203.7392578125, 156.77423095703125], "min" : [-4704.6787109375, -3197.301513671875, 3.0215671062469482], "name" : "POSITION"}, {"bufferView" : 2, "byteOffset" : 12, "componentType" : 5126, "count" : 33792, "type" : "VEC3", "max" : [1.0000044107437134, 1.0000044107437134, 1.0000044107437134], "min" : [-1.0000044107437134, -1.0000044107437134, -1.0000044107437134], "name" : "NORMAL"}, {"bufferView" : 2, "byteOffset" : 24, "componentType" : 5126, "count" : 33792, "type" : "VEC2", "max" : [1, -0], "min" : [0, -1], "name" : "TEXCOORD_0"}, {"bufferView" : 0, "byteOffset" : 67656, "componentType" : 5123, "count" : 33792, "type" : "SCALAR", "max" : [33791], "min" : [0]}, {"bufferView" : 3, "byteOffset" : 0, "componentType" : 5126, "count" : 33792, "type" : "VEC3", "max" : [4739.83203125, 3244.97021484375, 248.87759399414062], "min" : [-4740.0478515625, -3241.5224609375, -19.767728805541992], "name" : "POSITION"}, {"bufferView" : 3, "byteOffset" : 12, "componentType" : 5126, "count" : 33792, "type" : "VEC3", "max" : [1.0000044107437134, 1.0000044107437134, 1.0000044107437134], "min" : [-1.0000044107437134, -1.0000044107437134, -1.0000044107437134], "name" : "NORMAL"}, {"bufferView" : 3, "byteOffset" : 24, "componentType" : 5126, "count" : 33792, "type" : "VEC2", "max" : [1, -0], "min" : [0, -1], "name" : "TEXCOORD_0"}], "asset" : {"generator" : "Aspose.3D 22.10", "version" : "2.0"}, "buffers" : [{"uri" : "data:application/octet-stream;base64,", "byteLength" : 2299096}], "bufferViews" : [{"buffer" : 0, "byteOffset" : 0, "byteLength" : 135240, "target" : 34963}, {"buffer" : 0, "byteOffset" : 135244, "byteLength" : 1152, "byteStride" : 32, "target" : 34962}, {"buffer" : 0, "byteOffset" : 136400, "byteLength" : 1081344, "byteStride" : 32, "target" : 34962}, {"buffer" : 0, "byteOffset" : 1217748, "byteLength" : 1081344, "byteStride" : 32, "target" : 34962}], "materials" : [{"name" : "Material #1197", "pbrMetallicRoughness" : {"baseColorFactor" : [0.43529415130615234, 0.43529415130615234, 0.43529415130615234, 1], "metallicFactor" : 0, "roughnessFactor" : 0}, "emissiveFactor" : [0, 0, 0], "alphaMode" : "OPAQUE", "doubleSided" : false}, {"name" : "Material #1194", "pbrMetallicRoughness" : {"baseColorFactor" : [0.06600002944469452, 0.06600002944469452, 0.06600002944469452, 1], "metallicFactor" : 0, "roughnessFactor" : 0}, "emissiveFactor" : [0, 0, 0], "alphaMode" : "OPAQUE", "doubleSided" : false}, {"name" : "Material #1196", "pbrMetallicRoughness" : {"baseColorFactor" : [0.43529415130615234, 0.43529415130615234, 0.43529415130615234, 1], "metallicFactor" : 0, "roughnessFactor" : 0}, "emissiveFactor" : [0, 0, 0], "alphaMode" : "OPAQUE", "doubleSided" : false}], "meshes" : [{"primitives" : [{"attributes" : {"POSITION" : 1, "NORMAL" : 2, "TEXCOORD_0" : 3}, "indices" : 0, "material" : 0, "mode" : 4}, {"attributes" : {"POSITION" : 5, "NORMAL" : 6, "TEXCOORD_0" : 7}, "indices" : 4, "material" : 1, "mode" : 4}, {"attributes" : {"POSITION" : 9, "NORMAL" : 10, "TEXCOORD_0" : 11}, "indices" : 8, "material" : 2, "mode" : 4}], "name" : ""}], "nodes" : [{"matrix" : [0.05729902745303223, -0.00029475029503018646, 0.00015676479272462777, 0, 0.0002932312682514186, 0.05729660362838847, 0.0005506614882673211, 0, -0.00015958809472527103, -0.0005498499021739791, 0.05729713951607969, 0, 0.023944875225424767, -0.035816192626953125, -6.564558506011963, 1], "mesh" : 0, "name" : "Box1412"}], "scene" : 0, "scenes" : [{"nodes" : [0]}]}